<svg id="svg" version="1.1" xmlns="http://www.w3.org/2000/svg" xmlns:xlink="http://www.w3.org/1999/xlink" width="400" height="400" viewBox="0, 0, 400,400"><g id="svgg"><path id="path0" d="M0.000 200.000 L 0.000 400.000 200.000 400.000 L 400.000 400.000 400.000 200.000 L 400.000 0.000 200.000 0.000 L 0.000 0.000 0.000 200.000 M202.534 76.048 C 205.031 77.457,205.054 77.140,201.973 83.699 C 197.338 93.564,197.603 92.848,198.271 93.673 C 198.837 94.372,198.922 94.228,202.454 86.610 C 204.437 82.333,206.159 78.728,206.280 78.599 C 206.440 78.430,232.047 93.081,232.956 93.862 C 233.023 93.920,229.627 100.304,225.408 108.050 C 218.039 121.580,217.758 122.163,218.248 122.910 C 218.528 123.338,218.791 123.645,218.833 123.594 C 218.875 123.542,222.394 117.087,226.652 109.250 C 230.910 101.412,234.519 95.000,234.670 95.000 C 234.822 95.000,240.696 98.359,247.723 102.464 L 260.500 109.927 260.586 128.968 L 260.672 148.008 259.703 149.921 C 259.171 150.973,256.687 155.580,254.185 160.158 C 250.060 167.706,249.673 168.555,250.044 169.248 C 250.593 170.275,250.379 170.591,255.520 161.159 C 258.016 156.580,260.195 152.691,260.362 152.517 C 260.546 152.325,260.667 157.768,260.667 166.272 L 260.667 180.343 259.589 180.999 C 258.263 181.805,258.641 182.176,254.206 175.708 C 250.783 170.716,250.681 170.605,250.297 171.446 C 249.931 172.249,250.137 172.653,253.285 177.295 C 255.145 180.037,256.659 182.405,256.650 182.557 C 256.634 182.837,238.000 193.730,238.000 193.460 C 238.000 193.379,240.248 189.201,242.996 184.175 C 249.698 171.914,249.544 172.246,248.939 171.383 C 248.478 170.725,248.100 171.328,242.335 181.926 C 238.972 188.108,235.889 193.697,235.484 194.345 C 234.785 195.466,216.166 206.814,214.415 207.187 C 213.998 207.276,212.520 205.692,209.180 201.572 C 198.110 187.919,189.889 178.000,189.643 178.000 C 189.213 178.000,188.918 179.331,189.253 179.766 C 189.422 179.986,194.684 186.422,200.947 194.067 C 207.209 201.712,212.333 208.113,212.333 208.291 C 212.333 208.797,200.884 215.333,199.997 215.333 C 199.368 215.333,178.946 203.753,176.776 202.166 C 176.303 201.820,176.967 200.439,182.310 190.655 C 187.796 180.608,188.345 179.457,188.008 178.717 C 187.500 177.603,187.812 177.118,180.971 189.667 C 177.623 195.808,174.850 200.881,174.808 200.940 C 174.676 201.124,154.369 189.212,154.485 189.018 C 154.587 188.847,160.320 176.595,166.881 162.526 C 169.562 156.778,169.648 156.520,169.139 155.744 C 168.622 154.955,168.436 155.307,160.819 171.552 C 156.534 180.690,152.874 188.130,152.685 188.085 C 151.944 187.908,139.598 180.542,139.467 180.199 C 139.391 179.998,139.367 166.187,139.414 149.508 L 139.500 119.184 150.824 133.008 C 170.411 156.920,168.555 154.799,168.931 153.720 C 169.242 152.831,168.604 151.995,154.758 135.144 C 137.326 113.930,139.286 116.758,139.404 112.994 L 139.500 109.910 143.333 107.678 C 145.442 106.451,152.117 102.556,158.167 99.023 C 164.217 95.490,169.692 92.295,170.333 91.923 C 170.975 91.551,175.058 89.166,179.406 86.623 C 183.755 84.080,187.453 82.000,187.624 82.000 C 187.795 82.000,189.878 84.843,192.254 88.318 C 196.454 94.462,196.584 94.613,196.969 93.767 C 197.400 92.822,197.482 92.963,191.475 84.212 C 189.694 81.617,189.319 80.866,189.693 80.647 C 189.953 80.494,192.192 79.167,194.667 77.698 C 199.781 74.662,199.997 74.617,202.534 76.048 M198.386 95.850 C 198.013 96.669,198.357 97.251,204.557 106.276 C 208.169 111.532,212.244 117.483,213.613 119.500 C 216.739 124.104,216.562 123.927,217.024 122.914 C 217.390 122.111,216.875 121.274,208.327 108.780 C 197.686 93.227,198.876 94.775,198.386 95.850 M183.079 124.020 C 171.915 147.871,169.717 152.804,170.007 153.347 C 170.606 154.466,170.846 154.140,173.266 148.917 C 174.562 146.121,180.584 133.258,186.650 120.333 C 197.901 96.360,198.332 95.287,196.694 95.340 C 196.587 95.343,190.461 108.249,183.079 124.020 M207.849 140.246 C 203.091 149.003,196.803 160.572,193.876 165.957 C 188.610 175.645,188.260 176.525,189.524 176.881 C 189.780 176.953,195.666 166.262,216.080 128.642 C 217.607 125.828,217.640 125.708,217.080 125.029 C 216.513 124.341,216.313 124.671,207.849 140.246 M218.350 124.968 C 217.888 125.832,217.234 124.729,224.500 135.333 C 227.829 140.192,234.200 149.492,238.658 156.000 C 249.247 171.459,248.290 170.210,248.891 169.352 C 249.351 168.696,248.526 167.411,234.481 146.911 C 217.652 122.347,218.868 124.001,218.350 124.968 M170.387 155.516 C 169.901 156.581,186.776 177.601,187.581 176.933 C 188.399 176.254,187.910 175.551,179.449 165.247 C 174.746 159.520,170.870 154.795,170.836 154.749 C 170.803 154.702,170.600 155.047,170.387 155.516 M214.365 243.833 C 214.382 244.108,214.410 245.046,214.427 245.917 L 214.458 247.500 211.979 247.500 L 209.500 247.500 209.397 245.876 C 209.240 243.414,209.323 243.333,211.990 243.333 C 213.837 243.333,214.340 243.439,214.365 243.833 M224.698 243.833 C 224.715 244.108,224.743 245.046,224.760 245.917 L 224.792 247.500 222.313 247.500 L 219.833 247.500 219.730 245.876 C 219.574 243.414,219.656 243.333,222.323 243.333 C 224.170 243.333,224.673 243.439,224.698 243.833 M248.031 243.833 C 248.048 244.108,248.077 245.046,248.094 245.917 L 248.125 247.500 245.646 247.500 L 243.167 247.500 243.063 245.876 C 242.907 243.414,242.989 243.333,245.656 243.333 C 247.503 243.333,248.007 243.439,248.031 243.833 M157.000 248.833 L 157.000 250.667 158.333 250.667 C 159.714 250.667,159.733 250.691,159.733 252.500 C 159.733 254.309,159.714 254.333,158.333 254.333 L 157.000 254.333 157.000 259.855 C 157.000 265.956,157.175 266.667,158.678 266.667 C 159.654 266.667,159.667 266.690,159.667 268.500 L 159.667 270.333 157.172 270.333 C 154.887 270.333,154.586 270.252,153.589 269.361 L 152.500 268.389 152.398 261.361 L 152.296 254.333 151.315 254.333 C 150.347 254.333,150.333 254.307,150.333 252.500 C 150.333 250.685,150.343 250.667,151.333 250.667 C 152.323 250.667,152.333 250.648,152.333 248.833 L 152.333 247.000 154.667 247.000 L 157.000 247.000 157.000 248.833 M184.333 248.833 L 184.333 250.667 185.667 250.667 C 187.048 250.667,187.067 250.691,187.067 252.500 C 187.067 254.309,187.048 254.333,185.667 254.333 L 184.333 254.333 184.333 259.855 C 184.333 265.956,184.508 266.667,186.012 266.667 C 186.987 266.667,187.000 266.690,187.000 268.500 L 187.000 270.333 184.505 270.333 C 182.220 270.333,181.919 270.252,180.922 269.361 L 179.833 268.389 179.731 261.361 L 179.629 254.333 178.648 254.333 C 177.681 254.333,177.667 254.307,177.667 252.500 C 177.667 250.685,177.677 250.667,178.667 250.667 C 179.657 250.667,179.667 250.648,179.667 248.833 L 179.667 247.000 182.000 247.000 L 184.333 247.000 184.333 248.833 M239.266 252.587 L 239.365 254.667 237.933 254.672 C 235.140 254.682,235.000 255.101,235.000 263.478 L 235.000 270.333 232.667 270.333 L 230.333 270.333 230.333 260.500 L 230.333 250.667 232.667 250.667 C 234.984 250.667,235.000 250.673,235.000 251.574 L 235.000 252.482 235.515 251.746 C 236.024 251.020,237.698 250.329,238.667 250.446 C 239.039 250.491,239.192 251.038,239.266 252.587 M198.355 251.012 C 198.800 251.250,199.000 251.250,199.000 251.012 C 199.000 250.805,199.999 250.667,201.500 250.667 L 204.000 250.667 204.000 260.500 L 204.000 270.333 201.500 270.333 C 199.999 270.333,199.000 270.195,199.000 269.988 C 199.000 269.750,198.800 269.750,198.355 269.988 C 196.440 271.013,192.286 270.186,191.475 268.618 C 190.815 267.342,190.806 253.558,191.465 252.370 C 192.322 250.824,196.475 250.005,198.355 251.012 M214.333 261.818 C 214.333 275.529,214.324 275.557,209.780 275.922 L 207.667 276.091 207.667 274.254 C 207.667 272.479,207.701 272.410,208.667 272.217 L 209.667 272.017 209.667 261.342 L 209.667 250.667 212.000 250.667 L 214.333 250.667 214.333 261.818 M224.667 260.500 L 224.667 270.333 222.333 270.333 L 220.000 270.333 220.000 260.500 L 220.000 250.667 222.333 250.667 L 224.667 250.667 224.667 260.500 M248.000 260.500 L 248.000 270.333 245.667 270.333 L 243.333 270.333 243.333 260.500 L 243.333 250.667 245.667 250.667 L 248.000 250.667 248.000 260.500 M195.822 254.743 C 195.727 254.989,195.691 257.736,195.742 260.846 L 195.833 266.500 197.333 266.500 L 198.833 266.500 198.833 260.500 L 198.833 254.500 197.414 254.397 C 196.455 254.328,195.938 254.440,195.822 254.743 M173.667 258.509 L 173.667 260.351 168.750 260.259 L 163.833 260.167 163.733 258.417 L 163.632 256.667 168.649 256.667 L 173.667 256.667 173.667 258.509 " stroke="none" fill="#fcf4f4" fill-rule="evenodd"></path><path id="path1" d="M194.500 78.052 C 191.933 79.542,189.768 80.818,189.689 80.886 C 189.565 80.994,194.026 87.700,196.677 91.390 L 197.556 92.613 201.079 85.065 L 204.603 77.517 202.718 76.435 C 200.099 74.932,199.759 74.999,194.500 78.052 M202.679 86.699 L 198.929 94.703 200.248 96.601 C 200.973 97.646,204.539 102.850,208.173 108.167 C 217.295 121.513,217.431 121.702,217.736 121.397 C 218.889 120.244,232.620 94.147,232.253 93.806 C 231.894 93.472,209.125 80.110,207.131 79.063 C 206.465 78.713,206.240 79.098,202.679 86.699 M184.500 83.866 C 182.850 84.858,172.088 91.161,160.583 97.873 L 139.667 110.077 139.667 113.221 L 139.667 116.365 154.353 134.266 C 162.430 144.111,169.153 152.208,169.293 152.258 C 169.529 152.343,196.344 95.478,196.337 94.907 C 196.333 94.659,187.682 81.967,187.560 82.032 C 187.527 82.049,186.150 82.874,184.500 83.866 M197.085 94.114 C 196.794 94.752,196.827 95.080,197.242 95.673 L 197.768 96.423 198.250 95.503 C 198.687 94.668,198.673 94.524,198.092 93.944 C 197.462 93.314,197.448 93.317,197.085 94.114 M226.831 109.382 C 222.616 117.109,219.123 123.540,219.069 123.674 C 219.016 123.807,221.428 127.498,224.429 131.875 C 249.167 167.957,249.438 168.349,249.514 168.242 C 249.543 168.201,251.990 163.719,254.951 158.283 L 260.333 148.399 260.333 129.247 L 260.333 110.095 247.689 102.714 C 240.734 98.655,234.920 95.333,234.769 95.333 C 234.618 95.333,231.046 101.655,226.831 109.382 M184.604 125.267 C 177.328 140.795,171.283 153.741,171.170 154.035 C 171.029 154.405,173.622 157.802,179.630 165.116 L 188.294 175.662 190.617 171.414 C 206.684 142.041,216.321 124.115,216.206 123.816 C 216.061 123.438,198.454 97.683,198.056 97.267 C 197.934 97.139,191.880 109.739,184.604 125.267 M139.748 150.138 L 139.833 180.423 146.312 184.205 C 149.875 186.285,152.824 187.953,152.865 187.910 C 153.421 187.339,168.269 154.829,168.101 154.552 C 167.973 154.340,164.116 149.592,159.531 144.000 C 154.946 138.408,148.804 130.908,145.883 127.333 C 142.961 123.758,140.367 120.613,140.117 120.343 C 139.734 119.930,139.676 124.566,139.748 150.138 M217.103 123.292 C 216.794 123.787,216.820 124.070,217.225 124.649 L 217.738 125.381 218.217 124.696 C 218.580 124.178,218.609 123.848,218.336 123.339 C 217.889 122.503,217.603 122.492,217.103 123.292 M207.502 144.927 C 201.839 155.326,195.529 166.895,193.479 170.637 L 189.751 177.441 201.925 192.304 C 208.621 200.478,214.115 207.191,214.133 207.221 C 214.170 207.281,233.067 196.251,234.202 195.508 C 234.848 195.084,248.093 171.261,248.106 170.499 C 248.109 170.265,218.543 126.852,217.864 126.094 C 217.828 126.054,213.165 134.529,207.502 144.927 M169.032 153.895 C 168.709 154.604,168.738 154.860,169.199 155.369 C 170.211 156.487,170.970 154.947,169.998 153.747 L 169.423 153.037 169.032 153.895 M255.583 161.579 C 253.063 166.206,251.000 170.131,251.000 170.301 C 251.000 170.724,258.319 181.335,258.605 181.326 C 258.730 181.322,259.173 181.057,259.587 180.738 L 260.341 180.158 260.254 166.662 L 260.167 153.167 255.583 161.579 M162.271 172.903 L 154.708 189.119 164.604 194.882 C 173.332 199.965,174.548 200.582,174.905 200.109 C 176.904 197.456,187.040 177.807,186.694 177.254 C 186.317 176.649,169.982 156.656,169.883 156.677 C 169.856 156.682,166.430 163.984,162.271 172.903 M249.021 169.628 C 248.623 170.371,249.037 171.667,249.672 171.667 C 250.268 171.667,250.448 169.972,249.909 169.433 C 249.450 168.974,249.360 168.994,249.021 169.628 M244.054 182.694 C 241.059 188.208,238.659 192.758,238.721 192.804 C 238.783 192.851,242.826 190.557,247.705 187.706 L 256.577 182.523 253.275 177.678 C 251.458 175.014,249.866 172.796,249.736 172.751 C 249.606 172.706,247.049 177.180,244.054 182.694 M187.837 176.987 C 187.485 178.096,188.303 179.282,188.877 178.496 C 189.439 177.729,189.454 177.254,188.933 176.733 C 188.367 176.167,188.076 176.235,187.837 176.987 M182.548 190.697 C 179.275 196.753,176.672 201.783,176.765 201.876 C 177.740 202.851,199.273 215.000,200.026 215.000 C 200.554 215.000,202.055 214.355,203.405 213.547 C 204.741 212.748,207.295 211.244,209.081 210.204 L 212.328 208.314 207.053 201.907 C 204.151 198.383,198.889 191.975,195.358 187.667 C 191.828 183.358,188.841 179.800,188.720 179.760 C 188.599 179.719,185.822 184.641,182.548 190.697 M209.667 245.500 L 209.667 247.333 212.000 247.333 L 214.333 247.333 214.333 245.500 L 214.333 243.667 212.000 243.667 L 209.667 243.667 209.667 245.500 M220.000 245.500 L 220.000 247.333 222.333 247.333 L 224.667 247.333 224.667 245.500 L 224.667 243.667 222.333 243.667 L 220.000 243.667 220.000 245.500 M243.333 245.500 L 243.333 247.333 245.667 247.333 L 248.000 247.333 248.000 245.500 L 248.000 243.667 245.667 243.667 L 243.333 243.667 243.333 245.500 M152.667 249.000 C 152.667 250.630,152.644 250.667,151.667 250.667 C 150.689 250.667,150.667 250.704,150.667 252.333 C 150.667 253.963,150.689 254.000,151.667 254.000 L 152.667 254.000 152.667 260.955 C 152.667 269.707,153.025 270.326,158.101 270.331 L 159.702 270.333 159.601 268.583 L 159.500 266.833 158.250 266.730 L 157.000 266.626 157.000 260.313 L 157.000 254.000 158.333 254.000 L 159.667 254.000 159.667 252.333 L 159.667 250.667 158.333 250.667 L 157.000 250.667 157.000 249.000 L 157.000 247.333 154.833 247.333 L 152.667 247.333 152.667 249.000 M180.000 249.000 C 180.000 250.630,179.978 250.667,179.000 250.667 C 178.022 250.667,178.000 250.704,178.000 252.333 C 178.000 253.963,178.022 254.000,179.000 254.000 L 180.000 254.000 180.000 260.955 C 180.000 269.707,180.358 270.326,185.434 270.331 L 187.035 270.333 186.934 268.583 L 186.833 266.833 185.583 266.730 L 184.333 266.626 184.333 260.313 L 184.333 254.000 185.667 254.000 L 187.000 254.000 187.000 252.333 L 187.000 250.667 185.667 250.667 L 184.333 250.667 184.333 249.000 L 184.333 247.333 182.167 247.333 L 180.000 247.333 180.000 249.000 M194.005 250.994 C 191.473 251.620,191.333 252.109,191.333 260.374 C 191.333 269.368,191.469 269.747,194.833 270.174 C 196.650 270.404,198.183 269.986,198.879 269.070 C 199.268 268.558,199.313 268.594,199.323 269.417 C 199.333 270.322,199.361 270.333,201.500 270.333 L 203.667 270.333 203.667 260.500 L 203.667 250.667 201.500 250.667 C 199.373 250.667,199.333 250.683,199.333 251.558 L 199.333 252.450 198.580 251.741 C 197.702 250.917,195.663 250.584,194.005 250.994 M209.995 260.750 C 209.990 272.221,209.977 272.333,208.628 272.333 C 207.697 272.333,207.667 272.385,207.667 274.000 L 207.667 275.667 209.344 275.667 C 213.989 275.667,214.000 275.636,214.000 262.022 L 214.000 250.667 212.000 250.667 L 210.000 250.667 209.995 260.750 M220.333 260.500 L 220.333 270.333 222.333 270.333 L 224.333 270.333 224.333 260.500 L 224.333 250.667 222.333 250.667 L 220.333 250.667 220.333 260.500 M230.667 260.500 L 230.667 270.333 232.667 270.333 L 234.667 270.333 234.667 263.716 C 234.667 255.286,235.007 254.333,238.016 254.333 C 238.987 254.333,239.000 254.308,239.000 252.500 C 239.000 251.183,238.873 250.667,238.550 250.667 C 237.413 250.667,235.881 251.513,235.303 252.460 L 234.669 253.500 234.668 252.083 L 234.667 250.667 232.667 250.667 L 230.667 250.667 230.667 260.500 M243.667 260.500 L 243.667 270.333 245.667 270.333 L 247.667 270.333 247.667 260.500 L 247.667 250.667 245.667 250.667 L 243.667 250.667 243.667 260.500 M198.810 254.524 C 199.485 255.199,199.595 265.938,198.933 266.600 C 198.240 267.293,196.017 267.103,195.729 266.326 C 195.402 265.442,195.449 254.955,195.782 254.416 C 196.146 253.827,198.185 253.900,198.810 254.524 M164.000 258.500 L 164.000 260.000 168.833 260.000 L 173.667 260.000 173.667 258.500 L 173.667 257.000 168.833 257.000 L 164.000 257.000 164.000 258.500 " stroke="none" fill="#2cb4c4" fill-rule="evenodd"></path><path id="path2" d="M209.815 261.000 C 209.815 266.775,209.861 269.137,209.916 266.250 C 209.972 263.362,209.972 258.637,209.916 255.750 C 209.861 252.862,209.815 255.225,209.815 261.000 M214.149 261.333 C 214.149 267.292,214.194 269.729,214.249 266.750 C 214.305 263.771,214.305 258.896,214.249 255.917 C 214.194 252.938,214.149 255.375,214.149 261.333 M220.148 260.500 C 220.148 266.000,220.193 268.297,220.249 265.604 C 220.305 262.911,220.305 258.411,220.249 255.604 C 220.194 252.797,220.148 255.000,220.148 260.500 M224.481 260.500 C 224.481 266.000,224.527 268.297,224.583 265.604 C 224.638 262.911,224.639 258.411,224.583 255.604 C 224.527 252.797,224.481 255.000,224.481 260.500 M230.481 260.500 C 230.481 266.000,230.527 268.297,230.583 265.604 C 230.638 262.911,230.639 258.411,230.583 255.604 C 230.527 252.797,230.481 255.000,230.481 260.500 M243.481 260.500 C 243.481 266.000,243.527 268.297,243.583 265.604 C 243.638 262.911,243.639 258.411,243.583 255.604 C 243.527 252.797,243.481 255.000,243.481 260.500 M247.814 260.500 C 247.814 266.000,247.860 268.297,247.916 265.604 C 247.972 262.911,247.972 258.411,247.916 255.604 C 247.860 252.797,247.815 255.000,247.814 260.500 M191.139 260.500 C 191.139 263.983,191.189 265.363,191.249 263.566 C 191.309 261.769,191.308 258.919,191.248 257.233 C 191.188 255.546,191.139 257.017,191.139 260.500 M234.808 263.500 C 234.808 267.350,234.857 268.879,234.916 266.899 C 234.975 264.918,234.974 261.768,234.915 259.899 C 234.856 258.029,234.807 259.650,234.808 263.500 " stroke="none" fill="#5cc4cc" fill-rule="evenodd"></path><path id="path3" d="M139.455 113.167 C 139.456 115.000,139.512 115.707,139.579 114.739 C 139.647 113.770,139.646 112.270,139.578 111.405 C 139.509 110.541,139.454 111.333,139.455 113.167 M260.489 129.167 C 260.489 139.800,260.532 144.198,260.583 138.940 C 260.635 133.683,260.635 124.983,260.583 119.607 C 260.532 114.232,260.489 118.533,260.489 129.167 M139.493 149.833 C 139.493 166.700,139.534 173.649,139.583 165.275 C 139.633 156.902,139.633 143.102,139.583 134.609 C 139.534 126.116,139.493 132.967,139.493 149.833 M260.486 166.333 C 260.486 174.125,260.530 177.313,260.583 173.417 C 260.636 169.521,260.636 163.146,260.583 159.250 C 260.530 155.354,260.486 158.542,260.486 166.333 M209.437 245.500 C 209.438 246.600,209.501 247.010,209.575 246.411 C 209.649 245.812,209.648 244.912,209.572 244.411 C 209.495 243.910,209.435 244.400,209.437 245.500 M219.770 245.500 C 219.772 246.600,219.834 247.010,219.908 246.411 C 219.982 245.812,219.981 244.912,219.905 244.411 C 219.829 243.910,219.768 244.400,219.770 245.500 M243.103 245.500 C 243.105 246.600,243.167 247.010,243.242 246.411 C 243.316 245.812,243.314 244.912,243.238 244.411 C 243.162 243.910,243.101 244.400,243.103 245.500 M199.026 250.936 C 199.011 251.194,198.830 251.270,198.583 251.122 C 198.332 250.972,198.361 251.111,198.654 251.473 C 199.153 252.086,199.540 251.707,199.221 250.917 C 199.091 250.596,199.047 250.601,199.026 250.936 M203.814 260.500 C 203.814 266.000,203.860 268.297,203.916 265.604 C 203.972 262.911,203.972 258.411,203.916 255.604 C 203.860 252.797,203.815 255.000,203.814 260.500 M163.767 258.333 C 163.767 259.342,163.829 259.754,163.905 259.250 C 163.982 258.746,163.982 257.921,163.905 257.417 C 163.829 256.912,163.767 257.325,163.767 258.333 " stroke="none" fill="#ccecec" fill-rule="evenodd"></path><path id="path4" d="M210.750 243.576 C 211.438 243.648,212.563 243.648,213.250 243.576 C 213.938 243.504,213.375 243.445,212.000 243.445 C 210.625 243.445,210.063 243.504,210.750 243.576 M221.083 243.576 C 221.771 243.648,222.896 243.648,223.583 243.576 C 224.271 243.504,223.708 243.445,222.333 243.445 C 220.958 243.445,220.396 243.504,221.083 243.576 M244.417 243.576 C 245.104 243.648,246.229 243.648,246.917 243.576 C 247.604 243.504,247.042 243.445,245.667 243.445 C 244.292 243.445,243.729 243.504,244.417 243.576 M152.469 247.462 C 152.371 247.716,152.350 248.578,152.421 249.379 C 152.550 250.829,152.550 250.829,152.608 249.099 L 152.667 247.364 154.917 247.247 L 157.167 247.131 154.906 247.065 C 153.241 247.017,152.599 247.122,152.469 247.462 M179.802 247.462 C 179.704 247.716,179.683 248.578,179.754 249.379 C 179.883 250.829,179.884 250.829,179.942 249.099 L 180.000 247.364 182.250 247.247 L 184.500 247.131 182.240 247.065 C 180.574 247.017,179.932 247.122,179.802 247.462 M210.750 247.576 C 211.438 247.648,212.563 247.648,213.250 247.576 C 213.938 247.504,213.375 247.445,212.000 247.445 C 210.625 247.445,210.063 247.504,210.750 247.576 M221.083 247.576 C 221.771 247.648,222.896 247.648,223.583 247.576 C 224.271 247.504,223.708 247.445,222.333 247.445 C 220.958 247.445,220.396 247.504,221.083 247.576 M244.417 247.576 C 245.104 247.648,246.229 247.648,246.917 247.576 C 247.604 247.504,247.042 247.445,245.667 247.445 C 244.292 247.445,243.729 247.504,244.417 247.576 M150.433 252.333 C 150.433 253.342,150.496 253.754,150.572 253.250 C 150.648 252.746,150.648 251.921,150.572 251.417 C 150.496 250.912,150.433 251.325,150.433 252.333 M177.767 252.333 C 177.767 253.342,177.829 253.754,177.905 253.250 C 177.982 252.746,177.982 251.921,177.905 251.417 C 177.829 250.912,177.767 251.325,177.767 252.333 M152.473 260.667 C 152.473 264.242,152.522 265.704,152.582 263.917 C 152.642 262.129,152.642 259.204,152.582 257.417 C 152.522 255.629,152.473 257.092,152.473 260.667 M179.806 260.667 C 179.806 264.242,179.855 265.704,179.915 263.917 C 179.975 262.129,179.975 259.204,179.915 257.417 C 179.855 255.629,179.806 257.092,179.806 260.667 M199.136 260.500 C 199.136 263.617,199.186 264.937,199.248 263.433 C 199.309 261.930,199.310 259.380,199.248 257.766 C 199.187 256.153,199.137 257.383,199.136 260.500 M166.432 256.915 C 167.861 256.977,170.111 256.977,171.432 256.914 C 172.753 256.851,171.583 256.800,168.833 256.800 C 166.083 256.800,165.003 256.852,166.432 256.915 M166.432 260.248 C 167.861 260.311,170.111 260.310,171.432 260.247 C 172.753 260.184,171.583 260.133,168.833 260.133 C 166.083 260.134,165.003 260.185,166.432 260.248 " stroke="none" fill="#94d4dc" fill-rule="evenodd"></path></g></svg>